<svg width="1280" height="194" viewBox="0 0 1280 194" fill="none" xmlns="http://www.w3.org/2000/svg">
<path fill-rule="evenodd" clip-rule="evenodd" d="M0 191H87.122L91.219 157.26H7.83298L25.426 13.6241H0V191ZM1264.3 80.8631C1269.66 80.8631 1274.9 81.5057 1280 82.7908V114.412C1279.38 113.858 1278.72 113.359 1278.04 112.916C1275.31 111.149 1272.57 109.944 1269.84 109.301C1267.11 108.658 1264.86 108.337 1263.09 108.337C1256.51 108.337 1251.21 110.104 1247.19 113.639C1243.17 117.013 1240.28 121.19 1238.51 126.171C1236.75 131.152 1235.86 135.811 1235.86 140.149C1235.86 147.379 1237.31 152.842 1240.2 156.537C1243.25 160.232 1246.71 162.803 1250.56 164.249C1254.58 165.534 1258.03 166.177 1260.93 166.177C1267.83 166.177 1273.22 164.41 1277.07 160.875C1278.13 159.903 1279.11 158.875 1280 157.793V191.434C1274.14 193.073 1267.46 193.892 1259.96 193.892C1253.7 193.892 1247.19 192.928 1240.44 191C1233.69 188.911 1227.35 185.778 1221.4 181.601C1215.62 177.424 1210.88 172.041 1207.18 165.454C1203.65 158.867 1201.88 150.994 1201.88 141.836C1201.88 135.409 1202.93 128.661 1205.01 121.592C1207.26 114.523 1210.8 107.935 1215.62 101.83C1220.44 95.5641 1226.86 90.5031 1234.9 86.6471C1242.93 82.7911 1252.73 80.8631 1264.3 80.8631ZM130.67 85.6831H164.41L151.396 191H117.656L130.67 85.6831ZM132.839 48.5691C132.839 43.4277 134.606 39.0897 138.141 35.5551C141.675 32.0204 146.335 30.2531 152.119 30.2531C156.135 30.2531 160.152 31.4581 164.169 33.8681C168.185 36.1174 170.194 40.1341 170.194 45.9181C170.194 50.8987 168.426 55.2367 164.892 58.9321C161.357 62.4667 156.698 64.2341 150.914 64.2341C146.897 64.2341 142.88 63.1094 138.864 60.8601C134.847 58.4501 132.839 54.3531 132.839 48.5691ZM227.354 193.41C220.445 193.571 213.697 191.643 207.11 187.626C200.523 183.609 195.06 177.745 190.722 170.033C186.545 162.321 184.456 153.002 184.456 142.077C184.456 134.204 185.902 126.653 188.794 119.423C191.686 112.032 195.783 105.445 201.085 99.6611C206.387 93.7164 212.653 89.0571 219.883 85.6831C227.113 82.1484 235.066 80.3811 243.742 80.3811C250.811 80.3811 256.515 81.1844 260.853 82.7911C265.352 84.3977 268.967 86.4864 271.698 89.0571C274.261 91.319 276.471 93.7932 278.327 96.4796L281.82 85.6831H313.15L300.377 191H266.637L268.152 177.919C268.051 178.019 267.948 178.121 267.842 178.227C265.914 179.994 263.102 182.083 259.407 184.493C255.872 186.903 251.374 189.072 245.911 191C240.609 192.767 234.423 193.571 227.354 193.41ZM246.393 166.418C249.606 166.418 252.659 165.856 255.551 164.731C258.604 163.446 261.496 161.678 264.227 159.429C266.958 157.019 269.368 154.047 271.457 150.512L274.59 124.725C273.787 121.19 272.26 118.218 270.011 115.808C267.762 113.237 264.95 111.309 261.576 110.024C258.202 108.578 254.346 107.855 250.008 107.855C244.545 107.855 239.886 108.819 236.03 110.747C232.174 112.675 228.961 115.165 226.39 118.218C223.98 121.271 222.213 124.564 221.088 128.099C219.963 131.473 219.401 134.767 219.401 137.98C219.401 143.764 220.526 148.825 222.775 153.163C225.024 157.34 228.157 160.634 232.174 163.044C236.351 165.293 241.091 166.418 246.393 166.418ZM378.741 85.6831L379.131 102.247C384.027 95.4422 389.762 90.162 396.334 86.4061C403.243 82.3894 411.116 80.3811 419.952 80.3811C428.468 80.3811 435.296 82.0681 440.437 85.4421C445.67 88.6136 448.712 93.8197 449.563 101.06C454.6 95.191 460.395 90.3062 466.947 86.4061C473.856 82.3894 480.765 80.3811 487.673 80.3811C498.117 80.3811 506.07 83.3534 511.532 89.2981C516.995 95.0821 519.244 102.633 518.28 111.952L508.64 191H475.141L483.094 125.93C483.416 121.271 483.094 117.495 482.13 114.603C481.327 111.55 478.596 109.863 473.936 109.542C468.474 109.542 463.654 111.47 459.476 115.326C455.299 119.021 451.925 123.841 449.354 129.786C446.784 135.57 445.097 141.595 444.293 147.861L438.991 191H405.251L413.204 125.93C413.526 121.271 413.124 117.495 411.999 114.603C410.875 111.55 407.983 109.863 403.323 109.542C398.021 109.542 393.282 111.47 389.104 115.326C385.088 119.021 381.794 123.761 379.223 129.545C376.813 135.329 375.207 141.274 374.403 147.379L369.101 191H335.361L348.134 85.6831H378.741ZM642.169 13.6241H678.319L656.629 191H620.479L642.169 13.6241ZM747.925 193.892C737.964 193.892 729.047 191.562 721.174 186.903C713.301 182.244 707.116 176.058 702.617 168.346C698.279 160.473 696.11 151.958 696.11 142.8C696.11 135.409 697.395 128.099 699.966 120.869C702.697 113.478 706.714 106.73 712.016 100.625C717.479 94.5197 724.146 89.6194 732.019 85.9241C739.892 82.2287 748.969 80.3811 759.252 80.3811C767.767 80.3811 775.319 81.9074 781.906 84.9601C786.168 86.935 789.791 89.1789 792.775 91.6917L803.837 0.851074H837.336L813.959 191H780.219L781.656 179.894C776.703 183.484 771.805 186.624 766.964 189.313C761.341 192.366 754.994 193.892 747.925 193.892ZM758.529 165.454C762.064 165.454 765.357 164.892 768.41 163.767C771.623 162.482 774.676 160.714 777.568 158.465C780.46 156.055 783.111 153.083 785.521 149.548L788.654 123.761C787.851 120.226 786.244 117.254 783.834 114.844C781.424 112.273 778.371 110.345 774.676 109.06C771.141 107.614 767.125 106.891 762.626 106.891C756.36 106.891 750.817 108.176 745.997 110.747C741.177 113.157 737.401 116.692 734.67 121.351C732.099 125.85 730.814 131.312 730.814 137.739C730.814 143.362 731.939 148.263 734.188 152.44C736.437 156.617 739.651 159.831 743.828 162.08C748.005 164.329 752.906 165.454 758.529 165.454ZM892.037 85.6831L891.073 109.06C894.93 102.794 899.508 97.5724 904.81 93.3951C910.273 89.0571 915.736 85.8438 921.198 83.7551C926.822 81.5057 931.561 80.3811 935.417 80.3811L929.633 114.121C921.922 113.157 915.013 114.442 908.907 117.977C902.802 121.512 897.902 126.171 894.206 131.955C890.511 137.739 888.262 143.684 887.458 149.789L882.397 191H848.898L861.672 85.6831H892.037ZM1000.13 193.892C993.867 193.892 987.361 192.928 980.612 191C973.865 188.911 967.518 185.778 961.573 181.601C955.789 177.424 951.05 172.041 947.354 165.454C943.82 158.867 942.052 150.994 942.052 141.836C942.052 135.409 943.097 128.661 945.185 121.592C947.435 114.523 950.969 107.935 955.789 101.83C960.609 95.5641 967.036 90.5031 975.07 86.6471C983.103 82.7911 992.904 80.8631 1004.47 80.8631C1013.95 80.8631 1023.03 82.8714 1031.7 86.8881C1040.54 90.7441 1047.77 96.5281 1053.39 104.24C1059.18 111.952 1062.07 121.512 1062.07 132.919C1062.07 136.936 1061.51 141.675 1060.38 147.138C1059.26 152.44 1057.33 157.822 1054.6 163.285C1051.87 168.748 1048.17 173.809 1043.51 178.468C1038.85 182.967 1032.91 186.662 1025.68 189.554C1018.61 192.446 1010.09 193.892 1000.13 193.892ZM1001.1 166.177C1008.01 166.177 1013.39 164.41 1017.24 160.875C1021.1 157.34 1023.83 153.083 1025.44 148.102C1027.05 143.121 1027.85 138.542 1027.85 134.365C1027.85 128.742 1026.88 124.243 1024.96 120.869C1023.19 117.334 1020.94 114.683 1018.21 112.916C1015.48 111.149 1012.75 109.944 1010.01 109.301C1007.28 108.658 1005.03 108.337 1003.27 108.337C996.679 108.337 991.377 110.104 987.361 113.639C983.344 117.013 980.452 121.19 978.685 126.171C976.917 131.152 976.034 135.811 976.034 140.149C976.034 147.379 977.479 152.842 980.372 156.537C983.424 160.232 986.879 162.803 990.734 164.249C994.751 165.534 998.206 166.177 1001.1 166.177ZM1125.6 193.169L1075.47 85.6831H1115.47L1134.07 135.832L1161.75 85.6831H1199.34L1126.56 193.169H1125.6Z" fill="#EF4444"/>
</svg>
